<?xml version="1.0" encoding="utf-8"?>
<!-- Svg Vector Icons : http://www.onlinewebfonts.com/icon -->
<!DOCTYPE svg PUBLIC "-//W3C//DTD SVG 1.1//EN" "http://www.w3.org/Graphics/SVG/1.1/DTD/svg11.dtd">
<svg version="1.1" xmlns="http://www.w3.org/2000/svg" xmlns:xlink="http://www.w3.org/1999/xlink" x="0px" y="0px" viewBox="0 0 1000 1000" enable-background="new 0 0 1000 1000" xml:space="preserve">
<metadata> Svg Vector Icons : http://www.onlinewebfonts.com/icon </metadata>
<g><path d="M990,819.6L990,819.6L990,819.6L990,819.6z M968.7,840.9H862.1v106.5c0,11.8-9.5,21.3-21.3,21.3s-21.3-9.5-21.3-21.3V840.9H713c-11.8,0-21.3-9.5-21.3-21.3s9.5-21.3,21.3-21.3h106.5V691.7c0-11.8,9.5-21.3,21.3-21.3s21.3,9.5,21.3,21.3v106.5h106.5c11.8,0,21.3,9.5,21.3,21.3S980.5,840.9,968.7,840.9z M840.8,968.7L840.8,968.7L840.8,968.7L840.8,968.7z M691.8,819.6L691.8,819.6L691.8,819.6L691.8,819.6z M840.8,670.4L840.8,670.4L840.8,670.4L840.8,670.4z M819.5,201.8c0-23.5-19.1-42.6-42.6-42.6H52.6v596.5c0,23.5,19.1,42.6,42.6,42.6h511.3v42.6H95.2c-47.1,0-85.2-38.2-85.2-85.2V116.5l0,0c0-47.1,38.2-85.2,85.2-85.2h234.3c11.8,0,28,6.8,36.4,15.1l70.2,70.2h-63.9l-42.6-42.6H95.2c-23.5,0-42.6,19.1-42.6,42.6H10l0,0h42.6v42.6h362.2l-42.6-42.6h404.8c47.1,0,85.2,38.2,85.2,85.2v383.5h-42.6V201.8z"/></g>
</svg>