<?xml version="1.0" encoding="iso-8859-1"?>
<!-- Generator: Adobe Illustrator 18.0.0, SVG Export Plug-In . SVG Version: 6.00 Build 0)  -->
<!DOCTYPE svg PUBLIC "-//W3C//DTD SVG 1.1//EN" "http://www.w3.org/Graphics/SVG/1.1/DTD/svg11.dtd">
<svg version="1.1" id="Capa_1" xmlns="http://www.w3.org/2000/svg" xmlns:xlink="http://www.w3.org/1999/xlink" x="0px" y="0px"
	 viewBox="0 0 60 60" style="enable-background:new 0 0 60 60;" xml:space="preserve">
<g>
	<path d="M44,34c-7.168,0-13,5.832-13,13s5.832,13,13,13s13-5.832,13-13S51.168,34,44,34z M44,58c-6.065,0-11-4.935-11-11
		s4.935-11,11-11s11,4.935,11,11S50.065,58,44,58z"/>
	<path d="M50,46h-5v-5c0-0.553-0.448-1-1-1s-1,0.447-1,1v5h-5c-0.552,0-1,0.447-1,1s0.448,1,1,1h5v5c0,0.553,0.448,1,1,1
		s1-0.447,1-1v-5h5c0.552,0,1-0.447,1-1S50.552,46,50,46z"/>
	<path d="M20,8h9c0.552,0,1-0.447,1-1V1c0-0.553-0.448-1-1-1h-9c-0.552,0-1,0.447-1,1v6C19,7.553,19.448,8,20,8z"/>
	<path d="M13,11h23c0.552,0,1-0.447,1-1V4c0-0.553-0.448-1-1-1h-4c-0.552,0-1,0.447-1,1v5H18V4c0-0.553-0.448-1-1-1h-4
		c-0.552,0-1,0.447-1,1v6C12,10.553,12.448,11,13,11z"/>
	<path d="M28.811,42H10c-0.552,0-1-0.447-1-1s0.448-1,1-1h19c0.206,0,0.387,0.077,0.546,0.184c0.732-1.546,1.7-2.957,2.865-4.184H10
		c-0.552,0-1-0.447-1-1s0.448-1,1-1h24c0.187,0,0.352,0.065,0.502,0.154C37.162,32.182,40.442,31,44,31c0.679,0,1.343,0.057,2,0.139
		V7c0-0.553-0.448-1-1-1h-6c-0.552,0-1,0.447-1,1v5H11V7c0-0.553-0.448-1-1-1H4C3.448,6,3,6.447,3,7v50c0,0.553,0.448,1,1,1h28.411
		C29.685,55.129,28,51.262,28,47C28,45.253,28.291,43.575,28.811,42z M10,16h13c0.552,0,1,0.447,1,1s-0.448,1-1,1H10
		c-0.552,0-1-0.447-1-1S9.448,16,10,16z M10,22h29c0.552,0,1,0.447,1,1s-0.448,1-1,1H10c-0.552,0-1-0.447-1-1S9.448,22,10,22z
		 M10,28h14c0.552,0,1,0.447,1,1s-0.448,1-1,1H10c-0.552,0-1-0.447-1-1S9.448,28,10,28z M23,48H10c-0.552,0-1-0.447-1-1s0.448-1,1-1
		h13c0.552,0,1,0.447,1,1S23.552,48,23,48z"/>
</g>
<g>
</g>
<g>
</g>
<g>
</g>
<g>
</g>
<g>
</g>
<g>
</g>
<g>
</g>
<g>
</g>
<g>
</g>
<g>
</g>
<g>
</g>
<g>
</g>
<g>
</g>
<g>
</g>
<g>
</g>
</svg>
